<!--?xml version="1.0" encoding="utf-8"?-->
<!-- Generator: Adobe Illustrator 19.1.1, SVG Export Plug-In . SVG Version: 6.00 Build 0)  -->
<svg version="1.1" id="_x31_0" xmlns="http://www.w3.org/2000/svg" xmlns:xlink="http://www.w3.org/1999/xlink" x="0px" y="0px" viewBox="0 0 512 512" style="width: 256px; height: 256px; opacity: 1;" xml:space="preserve">
<style type="text/css">
	.st0{fill:#374149;}
</style>
<g>
	<path class="st0" d="M453.29,58.85c-30.145-30.144-90.102-69.867-131.665-55.762c-4.894,1.625-9.406,4.485-13,8.098l-72.668,63.238
		c-3.41,2.942-6.817,5.942-10.207,8.934l-28.406-9.996c-4.926-1.738-10.23-1.453-14.938,0.805c-4.714,2.25-8.262,6.207-9.996,11.125
		l-1.477,4.195c-3.57,10.157,1.738,21.317,11.958,24.93l4.203,1.48l1.773,0.699c-12.422,11.469-25.019,23.41-38.297,36.317
		c-27.023,27.746-53.344,56.356-78.234,85.039l-60.879,70.114c-3.946,3.946-6.805,8.402-8.539,13.336
		c-14.058,41.664,25.668,101.622,55.801,131.754c30.145,30.145,90.094,69.863,131.681,55.754c4.894-1.637,9.406-4.493,12.98-8.09
		l72.684-63.25c29.274-25.41,57.938-51.766,85.359-78.473c9.215-9.438,18.586-19.301,27.985-29.351
		c2.058-2.16,4.074-4.266,6.153-6.446l2.058,5.844c3.566,10.16,14.746,15.519,24.934,11.953l4.176-1.476
		c10.164-3.574,15.523-14.758,11.949-24.922l-9.926-28.195c3.664-4.153,7.301-8.282,10.906-12.45l44.363-51.098l1.918-1.914
		c0.894-0.898,1.613-1.961,2.449-2.902c0.699-0.789,1.39-1.605,2.054-2.434c0.801-0.996,1.715-1.863,2.473-2.926l7.637-8.84
		c3.95-3.949,6.813-8.414,8.531-13.339C523.142,148.932,483.422,88.983,453.29,58.85z M186.695,471.629l-11.539,10.027l-0.626,0.621
		c-0.398,0.402-0.578,0.493-0.578,0.493c-19.153,6.5-65.43-16.262-96.922-47.754c-31.981-31.981-54.25-77.234-47.75-97.012
		c0,0,0,0,0.047-0.047l1.066-1.066l10.11-11.625c3.742-4.363,10.734-2.359,11.98,3.254c5.348,23.605,24.68,56.39,49.669,81.378
		c24.633,24.63,57.859,44.141,81.469,49.574C189.23,460.808,191.058,467.801,186.695,471.629z M134.758,238.05l-57.774,57.774
		l-10.332,0.547l-7.238,0.27l65.363-68.567L134.758,238.05z M148.519,224.288l-10.332-10.336l52.16-54.742l20.355-9.754
		l-23.43,36.078L148.519,224.288z M298.05,373.816l-10.336-10.336l38.754-38.75l36.078-23.43l-9.754,20.355L298.05,373.816z
		 M371.191,58.811l-74.969,9.758c-1.023,0.133-1.914-0.222-2.539-0.848c-1.16-1.156-1.378-3.074-0.042-4.414l17.281-17.282
		c13.188-13.183,34.031-14.43,48.731-2.938l13.05,10.199l0.27,0.266C374.754,55.334,373.774,58.451,371.191,58.811z
		 M241.836,130.616c19.152,9.301,38.578,22.156,57.277,37.758c2.414,2.043,4.856,3.958,7.242,6.102l-27.816,12.531
		c-1.422,0.622-2.18,2.27-1.692,3.832c0.535,1.602,2.27,2.539,3.965,2l33.985-10.734c2.184,2.094,4.363,4.188,6.547,6.371
		c6.73,6.73,12.976,13.618,18.871,20.586c0.874,1.066,1.836,2.098,2.687,3.175l-61.199,26.126c-1.469,0.578-2.226,2.226-1.825,3.785
		c0.489,1.649,2.27,2.629,3.914,2.141l68.465-20.176c10.821,14.477,19.821,29.262,26.946,43.871c0.226,0.493,0.45,0.891,0.625,1.336
		l-57.414,32.383l-114.341-114.34l32.379-57.418C240.945,130.17,241.343,130.393,241.836,130.616z M215.297,452.578l0.882-17.558
		l57.77-57.774l9.879,9.879l0.145,0.144l-39.914,38.051L215.297,452.578z M466.598,201.702l-17.282,17.282
		c-1.34,1.34-3.254,1.118-4.367,0.004c-0.625-0.625-1.023-1.558-0.89-2.582l9.758-74.969c0.355-2.582,3.473-3.562,5.254-1.781
		l0.27,0.266l10.242,13.098C481.028,167.674,479.782,188.518,466.598,201.702z M460.196,120.143
		c-3.394-0.551-6.958-0.25-10.391,0.894c-1.644,0.578-3.206,1.336-4.633,2.226l-55.809-55.813c0.891-1.426,1.649-2.984,2.227-4.629
		c1.199-3.519,1.465-7.172,0.843-10.648c13.321,7.351,27.13,17.504,38.574,28.953c9.458,9.454,17.774,20.246,24.52,31.016
		C457.153,114.795,458.766,117.452,460.196,120.143z" style="fill: rgb(29, 172, 224);"></path>
</g>
</svg>
