<!--?xml version="1.0" encoding="utf-8"?-->
<!-- Generator: Adobe Illustrator 18.1.1, SVG Export Plug-In . SVG Version: 6.00 Build 0)  -->

<svg version="1.1" id="_x31_0" xmlns="http://www.w3.org/2000/svg" xmlns:xlink="http://www.w3.org/1999/xlink" x="0px" y="0px" viewBox="0 0 512 512" style="width: 256px; height: 256px; opacity: 1;" xml:space="preserve">
<style type="text/css">
	.st0{fill:#374149;}
</style>
<g>
	<path class="st0" d="M60.964,287.062c-0.207,0.082-0.418,0.164-0.625,0.246c-2.642,1.082-5.224,2.29-7.771,3.626
		c-0.18,0.094-0.359,0.191-0.539,0.289c-7.876,4.196-15.319,9.478-22.015,16.174C5.895,331.518-1.902,366.551,0.743,401.87
		c2.473,33.354,13.162,86.116,18.35,91.304c5.189,5.189,57.955,15.878,91.304,18.351c20.48,1.535,40.796-0.59,59.01-7.224
		c0.02-0.008,0.035-0.016,0.055-0.02c3.231-1.179,6.376-2.527,9.462-4.004c0.289-0.141,0.574-0.278,0.859-0.418
		c2.934-1.442,5.786-3.008,8.56-4.735c0.254-0.156,0.493-0.328,0.742-0.484c5.61-3.567,10.967-7.564,15.788-12.389
		c42.327-42.323,33.865-112.159-14.417-160.441C152.643,283.995,101.654,270.75,60.964,287.062z M136.945,332.194
		c4.75,5.302,7.001,12.072,5.602,19.097c-2.825,14.182-19.378,24.004-36.979,21.941c-8.701-1.023-16.01-4.774-20.851-10.006
		c-0.098-0.105-0.199-0.206-0.293-0.312c-4.75-5.302-7.005-12.073-5.602-19.101c2.821-14.182,19.378-24.004,36.974-21.938
		c8.701,1.02,16.007,4.766,20.847,9.998C136.745,331.983,136.847,332.085,136.945,332.194z" style="fill: rgb(244, 168, 64);"></path>
	<path class="st0" d="M174.146,262.288c1.282,6.411,2.215,12.783,2.914,18.769c2.294-6.567,5.208-14.146,8.818-22.266
		c12.748-28.754,34.427-59.217,46.824-69.827c1.594-1.438,3.497-2.95,5.594-4.583c2.254-13.447,3.614-26.231,4.509-36.76
		c1.398-16.71,1.594-27.938,1.594-27.938c0.23-6.528,6.098-11.775,13.443-11.658c7.267,0.117,13.174,5.79,12.978,12.666
		c-0.038,0.43-0.078,0.934-0.156,1.325c0,0-1.516,11.615-4.934,28.868c-1.058,5.106-2.298,10.826-3.684,16.78
		c-0.363,1.426-0.664,2.798-1.066,4.247c0.031-0.012,0.058-0.012,0.09-0.024c-0.016,0.062-0.023,0.118-0.039,0.176
		c5.79-1.825,12.006-2.837,18.378-2.294c8.665,0.661,16.436,4.235,22.422,10.221c0.246,0.246,0.48,0.504,0.707,0.766
		c0.007,0.043,0.046,0.078,0.046,0.125c0.008-0.015,0.016-0.031,0.024-0.046c0.038,0.046,0.082,0.082,0.117,0.125
		c0.89-1.512,1.707-3.106,2.602-4.7c12.006-21.566,26.656-47.793,29.493-52.884c4.04-7.306,8.548-20.284,6.802-30.583
		c-1.633-10.334-9.369-17.6-28.641-14.26c-41.538,6.724-21.176-19.155-20.515-35.67c0.816-16.358-5.091-27.86-12.706-34.698
		c-2.985-2.711-6.247-4.512-9.502-5.86c-0.046-0.019-0.094-0.039-0.141-0.058c-1.715-0.699-3.379-1.231-5.051-1.582
		c-0.039-0.008-0.074-0.012-0.114-0.02c-3.161-0.648-6.212-0.871-8.782-0.367c-6.681,0.543-15.386,5.595-21.797,13.405
		c-6.411,7.888-10.494,18.574-8.005,31.552c2.954,14.299,21.526,39.166-19.855,31.591c-38.276-6.258-31.282,21.797-25.61,33.998
		c1.985,4.083,12.049,25.645,16.788,46.164c4.974,20.515,4.47,39.128-6.142,33.65c-15.89-7.732-24.906-7.033-29.646-2.993
		c-4.586,4.196-4.895,12.123-3.306,20.71C160.116,215.854,169.638,238.663,174.146,262.288z" style="fill: rgb(244, 168, 64);"></path>
	<path class="st0" d="M511.748,252.662c0.004-1.489-0.156-3.012-0.496-4.657c-0.062-0.294-0.141-0.594-0.214-0.895
		c-0.418-1.718-0.997-3.43-1.782-5.204c-0.207-0.465-0.442-0.926-0.672-1.394c-0.852-1.715-1.86-3.372-3.051-5.032
		c-0.317-0.434-0.649-0.867-0.993-1.301c-0.68-0.868-1.215-1.782-1.993-2.61c-0.312-0.312-0.625-0.699-0.934-1.008
		c-7.306-7.306-18.499-12.592-32.564-11.115c-11.033,1.012-26.461,10.221-33.263,3.419c-0.297-0.297-0.562-0.668-0.828-1.032
		c-0.234-0.32-0.446-0.675-0.653-1.043c-0.511-0.926-0.957-1.984-1.281-3.262c-0.028-0.118-0.051-0.242-0.078-0.36
		c-0.942-4.063-0.926-9.919,0.434-18.237c2.098-12.049,0.039-19.546-4.314-23.898c-2.641-2.642-6.063-4.118-9.946-4.739
		c-10.298-1.75-23.278,2.758-30.583,6.798c-5.091,2.837-31.318,17.487-52.884,29.494c-10.568,5.829-20.554,11.306-28.211,14.221
		c-6.255,2.371-10.92,3.071-13.131,0.856c-0.211-0.207-0.352-0.481-0.512-0.735c-0.195-0.305-0.344-0.648-0.473-1.011
		c-0.11-0.325-0.238-0.63-0.297-1.012c-0.118-0.352-0.122-0.738-0.156-1.169c-0.078-5.282-0.7-9.634-1.711-13.209
		c-1.126-3.926-2.798-6.915-4.857-8.978c-2.371-2.367-5.325-3.614-8.743-3.844c-0.52-0.051-1.106,0.086-1.641,0.082
		c-0.035,0-0.07-0.007-0.106-0.007c-0.047,0-0.102,0.019-0.149,0.019c-6.884,0.031-15.046,3.524-22.781,9.193
		c-1.942,1.399-3.884,2.95-5.786,4.622c-4.313,3.614-11.389,12.084-18.886,23.003l-0.039,0.039
		c-7.81,11.306-16.05,25.219-22.148,39.014c-5.79,12.783-9.986,25.137-12.514,34.506c2.954,2.485,5.79,5.165,8.588,7.966
		c7.575,7.575,14.221,15.619,19.933,23.973c8.162,0.542,17.874,1.711,27.59,3.653c23.625,4.509,46.434,14.026,53.934,15.542
		c7.095,1.317,13.635,1.199,18.085-1.434c0.371-0.219,0.696-0.481,1.032-0.735c0.519-0.394,1.156-0.644,1.594-1.133
		c4.079-4.704,4.739-13.756-2.993-29.65c-0.343-0.66-0.59-1.281-0.75-1.867v-0.004c-0.313-1.156-0.278-2.16,0.062-3.028
		c0.004-0.007,0.004-0.019,0.008-0.031c2.266-5.661,17.702-5.211,34.369-1.168c20.519,4.739,42.085,14.803,46.125,16.745
		c12.201,5.673,40.257,12.67,34.041-25.566c-2.77-15.214-1.168-22.176,2.657-24.844c0.117-0.086,0.226-0.187,0.351-0.262
		c0.629-0.383,1.301-0.672,2.032-0.856c0.031-0.011,0.066-0.011,0.102-0.019c7.052-1.7,18.35,4.911,26.41,6.087
		c14.569,1.902,25.293-2.138,32.794-8.396c7.419-6.255,11.58-14.686,12.201-21.371c0.11-0.586,0-1.313,0.043-1.95
		C511.745,253.447,511.748,253.06,511.748,252.662z M393.476,267.434c-0.43,0.039-0.821,0.117-1.246,0.078
		c0,0-11.19,0.234-27.938,1.594c-16.67,1.438-38.975,4.079-60.81,9.287c-6.88,1.594-13.678,3.418-20.246,5.399
		c-14.378,4.274-27.704,9.286-38.198,14.107c-7.615,3.65-13.987,6.759-18.183,9.326c-4.313,2.446-6.762,3.883-6.762,3.883
		c-1.008,0.543-2.325,0.386-3.219-0.504c-0.004,0-0.004-0.004-0.004-0.004c-0.161-0.156-0.274-0.348-0.391-0.539
		c-0.778-1.168-0.543-2.723,0.504-3.462c0,0,2.294-1.746,6.411-4.778c4.044-3.11,10.103-6.994,17.526-11.619
		c14.882-9.13,36.022-19.312,58.053-27.122c3.966-1.399,7.966-2.758,11.928-4.001c18.108-5.83,36.06-10.026,50.168-12.862
		c17.214-3.462,28.829-4.974,28.829-4.974c3.849-0.586,7.502,0.813,10.103,3.418c2.063,2.059,3.462,4.857,3.77,8.045
		C404.587,259.971,399.96,266.461,393.476,267.434z" style="fill: rgb(244, 168, 64);"></path>
</g>
</svg>
