<!--?xml version="1.0" encoding="utf-8"?-->
<!-- Generator: Adobe Illustrator 19.1.1, SVG Export Plug-In . SVG Version: 6.00 Build 0)  -->
<svg version="1.1" id="_x31_0" xmlns="http://www.w3.org/2000/svg" xmlns:xlink="http://www.w3.org/1999/xlink" x="0px" y="0px" viewBox="0 0 512 512" style="width: 256px; height: 256px; opacity: 1;" xml:space="preserve">
<style type="text/css">
	.st0{fill:#374149;}
</style>
<g>
	<path class="st0" d="M124.718,333.519v38.641h19.203c-3.523-3.602-5.679-8.242-6-13.281c-0.402-4.641,0.879-9.438,3.438-13.36
		l5.29-7.554l3.109-4.285h-0.109l0.109-0.161H124.718z" style="fill: rgb(48, 178, 127);"></path>
	<path class="st0" d="M238.242,263.039c-4.082,4.082-4.082,10.801,0.078,14.878c4.078,4.082,10.719,4.082,14.801,0
		c4.161-4.078,4.161-10.797,0.078-14.878C249.039,258.961,242.398,258.961,238.242,263.039z M243.922,272.32
		c-1.038-0.961-1.121-2.64-0.082-3.679c1.043-0.961,2.722-0.961,3.762,0c0.961,1.039,0.961,2.718-0.082,3.679
		C246.481,273.359,244.883,273.359,243.922,272.32z" style="fill: rgb(48, 178, 127);"></path>
	<path class="st0" d="M290.32,216.641c-2.562,2.558-2.562,6.718,0,9.277c2.563,2.563,6.719,2.563,9.282,0
		c2.558-2.558,2.558-6.718,0-9.277C297.039,214.082,292.883,214.082,290.32,216.641z" style="fill: rgb(48, 178, 127);"></path>
	<path class="st0" d="M326.078,180.801c-2.559,2.558-2.559,6.718,0,9.282c2.562,2.636,6.722,2.558,9.281,0
		c2.562-2.563,2.641-6.723,0.078-9.282C332.883,178.238,328.641,178.238,326.078,180.801z" style="fill: rgb(48, 178, 127);"></path>
	<path class="st0" d="M470.641,116.402c-2.883-4.562-6-9.043-9.282-13.363c-13.679-18.238-29.758-34.637-47.679-48.801
		c-4.242-3.359-8.641-6.558-13.118-9.52C359.438,16.481,309.68,0,256,0C114.562,0,0,114.641,0,256
		c0,57.359,18.801,110.32,50.718,152.961C62.68,425,76.496,439.558,91.813,452.383c0.808,0.683,1.656,1.308,2.472,1.98
		c2.817,2.297,5.637,4.586,8.551,6.766c2.488,1.871,5.054,3.625,7.606,5.398c1.34,0.93,2.648,1.906,4.008,2.813
		c3.316,2.21,6.706,4.297,10.117,6.343c0.722,0.434,1.418,0.899,2.145,1.321c3.535,2.078,7.14,4.027,10.773,5.926
		c0.723,0.379,1.426,0.789,2.153,1.16c3.289,1.68,6.637,3.234,9.992,4.766c1.199,0.547,2.375,1.141,3.586,1.668
		c2.64,1.157,5.328,2.199,8.011,3.262c2.043,0.817,4.07,1.672,6.141,2.438c1.61,0.59,3.254,1.102,4.875,1.661
		c3.246,1.121,6.488,2.238,9.789,3.234c0.149,0.043,0.297,0.078,0.45,0.126C205.77,508.207,230.434,512,256,512
		c84.32,0,159.121-40.801,205.758-103.68C493.359,365.762,512,313.039,512,256C512,204.481,496.883,156.558,470.641,116.402z
		 M215.438,375.84v57.398l-0.031,12.434c-5.43-1.199-10.695-2.555-15.969-4.153V359.84h94.961v-26.321h-71.117l-15.203,15.122
		l-35.36,24.801v14.718h-48v6.297l-0.102,4.004c-5.64-5.172-10.968-10.656-15.898-16.543v-48.398H78.32
		c-10.48-23.758-16.242-50-16.242-77.519c0-106.961,86.961-193.918,193.922-193.918c28.718,0,56.078,6.32,80.641,17.679
		c4.832,2.188,9.504,4.629,14.117,7.246c0.274,0.164,0.539,0.293,0.813,0.461L314,124.961l8.32,17.598L209.359,255.519
		c-8.398,8.398-8.398,22.161,0,30.641l1.359,1.359l-30.32,30.398l-10.961,15.602l-14.719,20.883
		c-0.718,1.039-0.961,2.238-0.878,3.359c0.082,1.199,0.558,2.238,1.442,3.199c1.758,1.758,4.476,1.918,6.476,0.558l36-25.199
		l2.805-2.801l28.156-28.078l1.36,1.359c8.484,8.477,22.164,8.398,30.64,0l112.883-112.883l17.598,8.321l28.328-28.324l8.094-8.031
		c2.633,4.949,5.028,10.05,7.262,15.316c9.679,22.961,15.038,48.242,15.038,74.801c0,27.519-5.762,53.762-16.242,77.519h-74.242
		v20.321h42.656l21.141,0.078c-3.187,5.493-6.614,10.829-10.434,15.922h-53.363v50c-2.156,1.438-4.317,2.801-6.554,4h-9.446v-90.321
		h-33.039v81.199h-71.359v-16h55.359V375.84H215.438z M328.32,213.809c0.481-2.039-0.05-4.34-1.679-5.969
		c-2.562-2.562-6.719-2.562-9.282,0c-2.558,2.562-2.558,6.718,0,9.281c0.582,0.578,1.305,0.848,2.008,1.161
		c0.058,0.027,0.11,0.074,0.168,0.098c0.687,0.281,1.363,0.39,2.098,0.422c0.086,0.004,0.164,0.047,0.25,0.047
		c0.273,0,0.546-0.016,0.839-0.016c0.215,0,0.458,0.027,0.703,0.062l-75.266,75.344c-1.519,1.523-4,1.523-5.519,0l-20.719-20.641
		c-1.441-1.438-1.441-4,0.078-5.515l75.359-75.364c-0.476,2.161,0.078,4.481,1.762,6.242c2.559,2.481,6.719,2.481,9.278,0
		c2.562-2.641,2.562-6.801,0-9.281c-0.558-0.59-1.262-0.848-1.938-1.168c-0.09-0.047-0.164-0.118-0.254-0.157
		c-0.684-0.289-1.356-0.398-2.082-0.43c-0.09-0.004-0.172-0.054-0.262-0.054c-0.27,0-0.539,0.015-0.828,0.015
		c-0.215,0-0.457-0.027-0.699-0.062l23.504-23.57l5.141-5.105c6.27,9.961,14.656,18.426,24.449,24.93
		c0.57,0.39,1.094,0.839,1.672,1.218l-15.465,15.426L328.32,213.809z M355.519,129.278c-0.878,0.882-2.082,1.281-3.199,1.281
		c-0.562,0-1.199-0.156-1.758-0.32c-0.484-0.238-0.961-0.558-1.363-0.961L337.84,118l6.32-6.32l11.278,11.359
		C357.199,124.718,357.199,127.598,355.519,129.278z M355.922,99.918L362,93.84c0.32,0.078,0.562,0.242,0.801,0.398l10.718,10.722
		c1.762,1.758,1.762,4.558,0,6.317c-0.878,0.882-2.082,1.281-3.199,1.281c-1.121,0-2.242-0.476-3.121-1.281L355.922,99.918z
		 M398.242,178.402l-11.359-11.363c-0.402-0.398-0.641-0.957-0.883-1.359c-0.718-1.68-0.398-3.598,0.961-4.962
		c0.879-0.801,2-1.277,3.118-1.277c1.121,0,2.242,0.476,3.121,1.277l11.363,11.364L398.242,178.402z M404.961,142.718
		c0.879-0.878,2-1.359,3.118-1.277c1.203-0.082,2.32,0.398,3.121,1.277l6.481,6.402c1.359,2,2.64,4,3.839,6.078l-5.199,5.121
		l-11.359-11.359C403.282,147.278,403.282,144.481,404.961,142.718z" style="fill: rgb(48, 178, 127);"></path>
</g>
</svg>
